<?xml version="1.0" standalone="no"?>
<!DOCTYPE svg PUBLIC "-//W3C//DTD SVG 20010904//EN"
 "http://www.w3.org/TR/2001/REC-SVG-20010904/DTD/svg10.dtd">
<svg version="1.0" xmlns="http://www.w3.org/2000/svg"
 width="512.000000pt" height="512.000000pt" viewBox="0 0 512.000000 512.000000"
 preserveAspectRatio="xMidYMid meet">
<metadata>
Created by potrace 1.14, written by Peter Selinger 2001-2017
</metadata>
<g transform="translate(0.000000,512.000000) scale(0.100000,-0.100000)"
fill="#000000" stroke="none">
<path d="M3375 4862 c-55 -6 -134 -32 -183 -61 -40 -24 -817 -564 -847 -589
-5 -4 -32 -23 -60 -42 -27 -19 -51 -37 -53 -42 -2 -4 -7 -8 -12 -8 -4 0 -165
-110 -357 -245 -191 -134 -356 -250 -367 -257 -101 -69 -144 -112 -188 -187
-76 -127 -81 -316 -12 -452 39 -79 111 -143 334 -299 118 -83 224 -157 235
-164 11 -8 162 -114 335 -235 173 -121 352 -246 397 -278 46 -31 79 -60 75
-64 -9 -8 -1058 -743 -1162 -813 -143 -98 -211 -181 -245 -298 -80 -279 120
-554 415 -572 59 -3 157 17 211 45 24 12 176 115 339 228 162 114 324 228 360
253 68 47 284 198 405 283 39 27 214 150 390 273 176 123 331 234 344 246 40
35 101 137 118 196 19 65 25 219 11 287 -25 120 -98 222 -218 305 -36 24 -142
98 -235 164 -94 65 -180 126 -192 134 -12 8 -104 73 -205 144 -101 71 -219
154 -263 184 -90 63 -195 137 -210 149 -5 5 -23 16 -39 27 -36 23 -43 15 164
160 91 64 172 120 180 126 8 6 184 129 390 273 504 353 481 337 505 361 42 43
85 113 105 171 84 245 -53 510 -300 578 -61 17 -119 24 -165 19z"/>
</g>
</svg>
